<svg width="699" height="226" viewBox="0 0 699 226" fill="none" xmlns="http://www.w3.org/2000/svg">
<mask id="path-1-outside-1_24_12" maskUnits="userSpaceOnUse" x="172" y="53" width="486" height="125" fill="black">
<rect fill="white" x="172" y="53" width="486" height="125"/>
<path d="M269.681 173.599C270.278 174.554 270.338 175.389 269.86 176.105C269.502 176.702 268.786 177 267.712 177H247.306C246.232 177 245.158 176.702 244.084 176.105C243.01 175.389 242.175 174.554 241.578 173.599L215.623 127.954H198.26V173.062C198.26 174.136 197.843 175.091 197.007 175.926C196.291 176.642 195.396 177 194.322 177H177.496C176.422 177 175.527 176.642 174.811 175.926C174.095 175.091 173.737 174.136 173.737 173.062V58.144C173.737 57.07 174.095 56.175 174.811 55.459C175.527 54.6237 176.422 54.206 177.496 54.206H194.322C195.396 54.206 196.291 54.6237 197.007 55.459C197.843 56.175 198.26 57.07 198.26 58.144V103.431H215.623L241.578 57.607C242.175 56.6523 243.01 55.8767 244.084 55.28C245.158 54.564 246.232 54.206 247.306 54.206H267.712C268.786 54.206 269.502 54.564 269.86 55.28C270.338 55.8767 270.278 56.6523 269.681 57.607L236.924 115.603L269.681 173.599ZM367.821 54.385C372.236 54.385 376.353 55.2203 380.172 56.891C383.991 58.5617 387.332 60.829 390.196 63.693C393.06 66.557 395.327 69.8983 396.998 73.717C398.669 77.5357 399.504 81.593 399.504 85.889V145.496C399.504 149.792 398.669 153.849 396.998 157.668C395.327 161.487 393.06 164.828 390.196 167.692C387.332 170.556 383.991 172.823 380.172 174.494C376.353 176.165 372.236 177 367.821 177H332.916C328.501 177 324.384 176.165 320.565 174.494C316.746 172.823 313.405 170.556 310.541 167.692C307.677 164.828 305.41 161.487 303.739 157.668C302.068 153.849 301.233 149.792 301.233 145.496V85.889C301.233 81.593 302.068 77.5357 303.739 73.717C305.41 69.8983 307.677 66.557 310.541 63.693C313.405 60.829 316.746 58.5617 320.565 56.891C324.384 55.2203 328.501 54.385 332.916 54.385H367.821ZM374.981 85.889C374.981 83.8603 374.265 82.1897 372.833 80.877C371.52 79.5643 369.85 78.908 367.821 78.908H332.916C330.887 78.908 329.157 79.5643 327.725 80.877C326.412 82.1897 325.756 83.8603 325.756 85.889V145.496C325.756 147.525 326.412 149.195 327.725 150.508C329.157 151.821 330.887 152.477 332.916 152.477H367.821C369.85 152.477 371.52 151.821 372.833 150.508C374.265 149.195 374.981 147.525 374.981 145.496V85.889ZM495.316 177H462.022C460.948 177 459.874 176.642 458.8 175.926C457.726 175.21 457.01 174.375 456.652 173.42L431.055 109.338C430.578 108.383 430.22 107.19 429.981 105.758C429.743 104.207 429.623 102.894 429.623 101.82V58.144C429.623 57.07 429.981 56.175 430.697 55.459C431.413 54.6237 432.308 54.206 433.382 54.206H450.208C451.282 54.206 452.177 54.6237 452.893 55.459C453.729 56.175 454.146 57.07 454.146 58.144V97.166C454.146 98.24 454.266 99.493 454.504 100.925C454.743 102.357 455.101 103.55 455.578 104.505L474.731 152.477H482.607L501.76 104.505C502.238 103.55 502.596 102.357 502.834 100.925C503.073 99.493 503.192 98.24 503.192 97.166V58.144C503.192 57.07 503.55 56.175 504.266 55.459C505.102 54.6237 506.056 54.206 507.13 54.206H523.956C525.03 54.206 525.925 54.6237 526.641 55.459C527.357 56.175 527.715 57.07 527.715 58.144V101.82C527.715 102.894 527.596 104.207 527.357 105.758C527.119 107.19 526.761 108.383 526.283 109.338L500.686 173.42C500.328 174.375 499.612 175.21 498.538 175.926C497.464 176.642 496.39 177 495.316 177ZM623.711 54.206C624.785 54.206 625.799 54.564 626.754 55.28C627.828 55.996 628.544 56.8313 628.902 57.786L654.678 121.868C655.036 122.823 655.334 124.076 655.573 125.627C655.931 127.059 656.11 128.312 656.11 129.386V173.062C656.11 174.136 655.692 175.091 654.857 175.926C654.141 176.642 653.246 177 652.172 177H635.346C634.272 177 633.317 176.642 632.482 175.926C631.766 175.091 631.408 174.136 631.408 173.062V152.477H582.362V173.062C582.362 174.136 581.944 175.091 581.109 175.926C580.393 176.642 579.498 177 578.424 177H561.777C560.703 177 559.748 176.642 558.913 175.926C558.197 175.091 557.839 174.136 557.839 173.062V129.386C557.839 128.312 557.958 127.059 558.197 125.627C558.555 124.076 558.913 122.823 559.271 121.868L584.868 57.786C585.345 56.8313 586.061 55.996 587.016 55.28C588.09 54.564 589.164 54.206 590.238 54.206H623.711ZM583.257 127.954H630.513L610.823 78.729H602.947L583.257 127.954Z"/>
</mask>
<path d="M269.681 173.599C270.278 174.554 270.338 175.389 269.86 176.105C269.502 176.702 268.786 177 267.712 177H247.306C246.232 177 245.158 176.702 244.084 176.105C243.01 175.389 242.175 174.554 241.578 173.599L215.623 127.954H198.26V173.062C198.26 174.136 197.843 175.091 197.007 175.926C196.291 176.642 195.396 177 194.322 177H177.496C176.422 177 175.527 176.642 174.811 175.926C174.095 175.091 173.737 174.136 173.737 173.062V58.144C173.737 57.07 174.095 56.175 174.811 55.459C175.527 54.6237 176.422 54.206 177.496 54.206H194.322C195.396 54.206 196.291 54.6237 197.007 55.459C197.843 56.175 198.26 57.07 198.26 58.144V103.431H215.623L241.578 57.607C242.175 56.6523 243.01 55.8767 244.084 55.28C245.158 54.564 246.232 54.206 247.306 54.206H267.712C268.786 54.206 269.502 54.564 269.86 55.28C270.338 55.8767 270.278 56.6523 269.681 57.607L236.924 115.603L269.681 173.599ZM367.821 54.385C372.236 54.385 376.353 55.2203 380.172 56.891C383.991 58.5617 387.332 60.829 390.196 63.693C393.06 66.557 395.327 69.8983 396.998 73.717C398.669 77.5357 399.504 81.593 399.504 85.889V145.496C399.504 149.792 398.669 153.849 396.998 157.668C395.327 161.487 393.06 164.828 390.196 167.692C387.332 170.556 383.991 172.823 380.172 174.494C376.353 176.165 372.236 177 367.821 177H332.916C328.501 177 324.384 176.165 320.565 174.494C316.746 172.823 313.405 170.556 310.541 167.692C307.677 164.828 305.41 161.487 303.739 157.668C302.068 153.849 301.233 149.792 301.233 145.496V85.889C301.233 81.593 302.068 77.5357 303.739 73.717C305.41 69.8983 307.677 66.557 310.541 63.693C313.405 60.829 316.746 58.5617 320.565 56.891C324.384 55.2203 328.501 54.385 332.916 54.385H367.821ZM374.981 85.889C374.981 83.8603 374.265 82.1897 372.833 80.877C371.52 79.5643 369.85 78.908 367.821 78.908H332.916C330.887 78.908 329.157 79.5643 327.725 80.877C326.412 82.1897 325.756 83.8603 325.756 85.889V145.496C325.756 147.525 326.412 149.195 327.725 150.508C329.157 151.821 330.887 152.477 332.916 152.477H367.821C369.85 152.477 371.52 151.821 372.833 150.508C374.265 149.195 374.981 147.525 374.981 145.496V85.889ZM495.316 177H462.022C460.948 177 459.874 176.642 458.8 175.926C457.726 175.21 457.01 174.375 456.652 173.42L431.055 109.338C430.578 108.383 430.22 107.19 429.981 105.758C429.743 104.207 429.623 102.894 429.623 101.82V58.144C429.623 57.07 429.981 56.175 430.697 55.459C431.413 54.6237 432.308 54.206 433.382 54.206H450.208C451.282 54.206 452.177 54.6237 452.893 55.459C453.729 56.175 454.146 57.07 454.146 58.144V97.166C454.146 98.24 454.266 99.493 454.504 100.925C454.743 102.357 455.101 103.55 455.578 104.505L474.731 152.477H482.607L501.76 104.505C502.238 103.55 502.596 102.357 502.834 100.925C503.073 99.493 503.192 98.24 503.192 97.166V58.144C503.192 57.07 503.55 56.175 504.266 55.459C505.102 54.6237 506.056 54.206 507.13 54.206H523.956C525.03 54.206 525.925 54.6237 526.641 55.459C527.357 56.175 527.715 57.07 527.715 58.144V101.82C527.715 102.894 527.596 104.207 527.357 105.758C527.119 107.19 526.761 108.383 526.283 109.338L500.686 173.42C500.328 174.375 499.612 175.21 498.538 175.926C497.464 176.642 496.39 177 495.316 177ZM623.711 54.206C624.785 54.206 625.799 54.564 626.754 55.28C627.828 55.996 628.544 56.8313 628.902 57.786L654.678 121.868C655.036 122.823 655.334 124.076 655.573 125.627C655.931 127.059 656.11 128.312 656.11 129.386V173.062C656.11 174.136 655.692 175.091 654.857 175.926C654.141 176.642 653.246 177 652.172 177H635.346C634.272 177 633.317 176.642 632.482 175.926C631.766 175.091 631.408 174.136 631.408 173.062V152.477H582.362V173.062C582.362 174.136 581.944 175.091 581.109 175.926C580.393 176.642 579.498 177 578.424 177H561.777C560.703 177 559.748 176.642 558.913 175.926C558.197 175.091 557.839 174.136 557.839 173.062V129.386C557.839 128.312 557.958 127.059 558.197 125.627C558.555 124.076 558.913 122.823 559.271 121.868L584.868 57.786C585.345 56.8313 586.061 55.996 587.016 55.28C588.09 54.564 589.164 54.206 590.238 54.206H623.711ZM583.257 127.954H630.513L610.823 78.729H602.947L583.257 127.954Z" fill="#D9D9D9"/>
<path d="M269.681 173.599L268.811 174.091L268.822 174.11L268.833 174.129L269.681 173.599ZM269.86 176.105L269.028 175.55L269.015 175.57L269.003 175.59L269.86 176.105ZM244.084 176.105L243.53 176.937L243.563 176.96L243.599 176.979L244.084 176.105ZM241.578 173.599L240.709 174.093L240.719 174.111L240.73 174.129L241.578 173.599ZM215.623 127.954L216.493 127.46L216.205 126.954H215.623V127.954ZM198.26 127.954V126.954H197.26V127.954H198.26ZM197.007 175.926L196.3 175.219V175.219L197.007 175.926ZM174.811 175.926L174.052 176.577L174.077 176.606L174.104 176.633L174.811 175.926ZM174.811 55.459L175.518 56.1661L175.546 56.1389L175.571 56.1098L174.811 55.459ZM197.007 55.459L196.248 56.1098L196.298 56.1682L196.357 56.2183L197.007 55.459ZM198.26 103.431H197.26V104.431H198.26V103.431ZM215.623 103.431V104.431H216.206L216.493 103.924L215.623 103.431ZM241.578 57.607L240.73 57.077L240.719 57.0953L240.708 57.1142L241.578 57.607ZM244.084 55.28L244.57 56.1542L244.605 56.1345L244.639 56.112L244.084 55.28ZM269.86 55.28L268.966 55.7272L269.013 55.822L269.079 55.9047L269.86 55.28ZM269.681 57.607L268.833 57.077L268.822 57.0958L268.811 57.1152L269.681 57.607ZM236.924 115.603L236.054 115.111L235.776 115.603L236.054 116.095L236.924 115.603ZM269.681 173.599L268.833 174.129C269.074 174.514 269.161 174.804 269.176 175.013C269.19 175.203 269.148 175.371 269.028 175.55L269.86 176.105L270.692 176.66C271.05 176.123 271.217 175.516 271.171 174.87C271.126 174.243 270.886 173.639 270.529 173.069L269.681 173.599ZM269.86 176.105L269.003 175.59C268.91 175.745 268.639 176 267.712 176V177V178C268.934 178 270.094 177.658 270.718 176.619L269.86 176.105ZM267.712 177V176H247.306V177V178H267.712V177ZM247.306 177V176C246.425 176 245.517 175.757 244.57 175.231L244.084 176.105L243.599 176.979C244.8 177.646 246.039 178 247.306 178V177ZM244.084 176.105L244.639 175.273C243.666 174.624 242.938 173.887 242.426 173.069L241.578 173.599L240.73 174.129C241.412 175.22 242.355 176.154 243.53 176.937L244.084 176.105ZM241.578 173.599L242.448 173.105L216.493 127.46L215.623 127.954L214.754 128.448L240.709 174.093L241.578 173.599ZM215.623 127.954V126.954H198.26V127.954V128.954H215.623V127.954ZM198.26 127.954H197.26V173.062H198.26H199.26V127.954H198.26ZM198.26 173.062H197.26C197.26 173.843 196.969 174.551 196.3 175.219L197.007 175.926L197.714 176.633C198.717 175.631 199.26 174.429 199.26 173.062H198.26ZM197.007 175.926L196.3 175.219C195.784 175.735 195.149 176 194.322 176V177V178C195.644 178 196.799 177.549 197.714 176.633L197.007 175.926ZM194.322 177V176H177.496V177V178H194.322V177ZM177.496 177V176C176.67 176 176.035 175.735 175.518 175.219L174.811 175.926L174.104 176.633C175.02 177.549 176.175 178 177.496 178V177ZM174.811 175.926L175.571 175.275C175.006 174.616 174.737 173.891 174.737 173.062H173.737H172.737C172.737 174.381 173.185 175.565 174.052 176.577L174.811 175.926ZM173.737 173.062H174.737V58.144H173.737H172.737V173.062H173.737ZM173.737 58.144H174.737C174.737 57.3174 175.002 56.6823 175.518 56.1661L174.811 55.459L174.104 54.7519C173.188 55.6677 172.737 56.8226 172.737 58.144H173.737ZM174.811 55.459L175.571 56.1098C176.102 55.4899 176.722 55.206 177.496 55.206V54.206V53.206C176.122 53.206 174.953 53.7574 174.052 54.8082L174.811 55.459ZM177.496 54.206V55.206H194.322V54.206V53.206H177.496V54.206ZM194.322 54.206V55.206C195.096 55.206 195.717 55.4899 196.248 56.1098L197.007 55.459L197.767 54.8082C196.866 53.7574 195.696 53.206 194.322 53.206V54.206ZM197.007 55.459L196.357 56.2183C196.976 56.7496 197.26 57.37 197.26 58.144H198.26H199.26C199.26 56.77 198.709 55.6004 197.658 54.6997L197.007 55.459ZM198.26 58.144H197.26V103.431H198.26H199.26V58.144H198.26ZM198.26 103.431V104.431H215.623V103.431V102.431H198.26V103.431ZM215.623 103.431L216.493 103.924L242.448 58.0998L241.578 57.607L240.708 57.1142L214.753 102.938L215.623 103.431ZM241.578 57.607L242.426 58.137C242.925 57.3387 243.63 56.6763 244.57 56.1542L244.084 55.28L243.599 54.4058C242.391 55.077 241.425 55.9659 240.73 57.077L241.578 57.607ZM244.084 55.28L244.639 56.112C245.582 55.4831 246.467 55.206 247.306 55.206V54.206V53.206C245.998 53.206 244.734 53.6449 243.53 54.448L244.084 55.28ZM247.306 54.206V55.206H267.712V54.206V53.206H247.306V54.206ZM267.712 54.206V55.206C268.559 55.206 268.836 55.4667 268.966 55.7272L269.86 55.28L270.755 54.8328C270.169 53.6613 269.014 53.206 267.712 53.206V54.206ZM269.86 55.28L269.079 55.9047C269.157 56.0011 269.187 56.0924 269.177 56.2325C269.163 56.4037 269.082 56.6795 268.833 57.077L269.681 57.607L270.529 58.137C270.878 57.5798 271.124 56.9905 271.171 56.3859C271.22 55.7505 271.041 55.1555 270.641 54.6553L269.86 55.28ZM269.681 57.607L268.811 57.1152L236.054 115.111L236.924 115.603L237.795 116.095L270.552 58.0988L269.681 57.607ZM236.924 115.603L236.054 116.095L268.811 174.091L269.681 173.599L270.552 173.107L237.795 115.111L236.924 115.603ZM380.172 56.891L379.771 57.8072V57.8072L380.172 56.891ZM390.196 167.692L390.903 168.399V168.399L390.196 167.692ZM380.172 174.494L380.573 175.41V175.41L380.172 174.494ZM310.541 167.692L309.834 168.399V168.399L310.541 167.692ZM303.739 157.668L304.655 157.267H304.655L303.739 157.668ZM303.739 73.717L304.655 74.1178V74.1178L303.739 73.717ZM310.541 63.693L309.834 62.9859V62.9859L310.541 63.693ZM320.565 56.891L320.966 57.8072V57.8072L320.565 56.891ZM372.833 80.877L372.126 81.5841L372.141 81.5995L372.157 81.6142L372.833 80.877ZM327.725 80.877L327.049 80.1398L327.033 80.1545L327.018 80.1699L327.725 80.877ZM327.725 150.508L327.018 151.215L327.033 151.23L327.049 151.245L327.725 150.508ZM372.833 150.508L372.157 149.771L372.141 149.786L372.126 149.801L372.833 150.508ZM367.821 54.385V55.385C372.107 55.385 376.086 56.195 379.771 57.8072L380.172 56.891L380.573 55.9748C376.62 54.2456 372.366 53.385 367.821 53.385V54.385ZM380.172 56.891L379.771 57.8072C383.479 59.4293 386.716 61.6269 389.489 64.4001L390.196 63.693L390.903 62.9859C387.948 60.0311 384.502 57.694 380.573 55.9748L380.172 56.891ZM390.196 63.693L389.489 64.4001C392.262 67.1734 394.46 70.41 396.082 74.1178L396.998 73.717L397.914 73.3162C396.195 69.3867 393.858 65.9406 390.903 62.9859L390.196 63.693ZM396.998 73.717L396.082 74.1178C397.695 77.8062 398.504 81.7266 398.504 85.889H399.504H400.504C400.504 81.4594 399.642 77.2652 397.914 73.3162L396.998 73.717ZM399.504 85.889H398.504V145.496H399.504H400.504V85.889H399.504ZM399.504 145.496H398.504C398.504 149.658 397.695 153.579 396.082 157.267L396.998 157.668L397.914 158.069C399.642 154.12 400.504 149.926 400.504 145.496H399.504ZM396.998 157.668L396.082 157.267C394.46 160.975 392.262 164.212 389.489 166.985L390.196 167.692L390.903 168.399C393.858 165.444 396.195 161.998 397.914 158.069L396.998 157.668ZM390.196 167.692L389.489 166.985C386.716 169.758 383.479 171.956 379.771 173.578L380.172 174.494L380.573 175.41C384.502 173.691 387.948 171.354 390.903 168.399L390.196 167.692ZM380.172 174.494L379.771 173.578C376.086 175.19 372.107 176 367.821 176V177V178C372.366 178 376.62 177.139 380.573 175.41L380.172 174.494ZM367.821 177V176H332.916V177V178H367.821V177ZM332.916 177V176C328.63 176 324.651 175.19 320.966 173.578L320.565 174.494L320.164 175.41C324.117 177.139 328.371 178 332.916 178V177ZM320.565 174.494L320.966 173.578C317.258 171.956 314.021 169.758 311.248 166.985L310.541 167.692L309.834 168.399C312.788 171.354 316.235 173.691 320.164 175.41L320.565 174.494ZM310.541 167.692L311.248 166.985C308.475 164.212 306.277 160.975 304.655 157.267L303.739 157.668L302.823 158.069C304.542 161.998 306.879 165.444 309.834 168.399L310.541 167.692ZM303.739 157.668L304.655 157.267C303.041 153.579 302.233 149.658 302.233 145.496H301.233H300.233C300.233 149.926 301.095 154.12 302.823 158.069L303.739 157.668ZM301.233 145.496H302.233V85.889H301.233H300.233V145.496H301.233ZM301.233 85.889H302.233C302.233 81.7266 303.041 77.8062 304.655 74.1178L303.739 73.717L302.823 73.3162C301.095 77.2652 300.233 81.4594 300.233 85.889H301.233ZM303.739 73.717L304.655 74.1178C306.277 70.41 308.475 67.1734 311.248 64.4001L310.541 63.693L309.834 62.9859C306.879 65.9406 304.542 69.3867 302.823 73.3162L303.739 73.717ZM310.541 63.693L311.248 64.4001C314.021 61.6269 317.258 59.4293 320.966 57.8072L320.565 56.891L320.164 55.9748C316.235 57.694 312.788 60.0311 309.834 62.9859L310.541 63.693ZM320.565 56.891L320.966 57.8072C324.651 56.195 328.63 55.385 332.916 55.385V54.385V53.385C328.371 53.385 324.117 54.2456 320.164 55.9748L320.565 56.891ZM332.916 54.385V55.385H367.821V54.385V53.385H332.916V54.385ZM374.981 85.889H375.981C375.981 83.5941 375.157 81.6512 373.509 80.1398L372.833 80.877L372.157 81.6142C373.372 82.7281 373.981 84.1266 373.981 85.889H374.981ZM372.833 80.877L373.54 80.1699C372.021 78.6514 370.088 77.908 367.821 77.908V78.908V79.908C369.611 79.908 371.019 80.4773 372.126 81.5841L372.833 80.877ZM367.821 78.908V77.908H332.916V78.908V79.908H367.821V78.908ZM332.916 78.908V77.908C330.649 77.908 328.674 78.6501 327.049 80.1398L327.725 80.877L328.401 81.6142C329.639 80.4786 331.125 79.908 332.916 79.908V78.908ZM327.725 80.877L327.018 80.1699C325.499 81.6884 324.756 83.6222 324.756 85.889H325.756H326.756C326.756 84.0985 327.325 82.6909 328.432 81.5841L327.725 80.877ZM325.756 85.889H324.756V145.496H325.756H326.756V85.889H325.756ZM325.756 145.496H324.756C324.756 147.763 325.499 149.697 327.018 151.215L327.725 150.508L328.432 149.801C327.325 148.694 326.756 147.287 326.756 145.496H325.756ZM327.725 150.508L327.049 151.245C328.674 152.735 330.649 153.477 332.916 153.477V152.477V151.477C331.125 151.477 329.639 150.906 328.401 149.771L327.725 150.508ZM332.916 152.477V153.477H367.821V152.477V151.477H332.916V152.477ZM367.821 152.477V153.477C370.088 153.477 372.021 152.734 373.54 151.215L372.833 150.508L372.126 149.801C371.019 150.908 369.611 151.477 367.821 151.477V152.477ZM372.833 150.508L373.509 151.245C375.157 149.734 375.981 147.791 375.981 145.496H374.981H373.981C373.981 147.258 373.372 148.657 372.157 149.771L372.833 150.508ZM374.981 145.496H375.981V85.889H374.981H373.981V145.496H374.981ZM458.8 175.926L459.355 175.094V175.094L458.8 175.926ZM456.652 173.42L457.589 173.069L457.585 173.059L457.581 173.049L456.652 173.42ZM431.055 109.338L431.984 108.967L431.969 108.928L431.95 108.891L431.055 109.338ZM429.981 105.758L428.993 105.91L428.995 105.922L429.981 105.758ZM430.697 55.459L431.405 56.1661L431.432 56.1389L431.457 56.1098L430.697 55.459ZM452.893 55.459L452.134 56.1098L452.184 56.1682L452.243 56.2183L452.893 55.459ZM454.504 100.925L455.491 100.761V100.761L454.504 100.925ZM455.578 104.505L456.507 104.134L456.492 104.095L456.473 104.058L455.578 104.505ZM474.731 152.477L473.803 152.848L474.054 153.477H474.731V152.477ZM482.607 152.477V153.477H483.285L483.536 152.848L482.607 152.477ZM501.76 104.505L500.866 104.058L500.847 104.095L500.832 104.134L501.76 104.505ZM502.834 100.925L501.848 100.761V100.761L502.834 100.925ZM504.266 55.459L504.974 56.1661V56.1661L504.266 55.459ZM526.641 55.459L525.882 56.1098L525.907 56.1389L525.934 56.1661L526.641 55.459ZM527.357 105.758L528.344 105.922L528.346 105.91L527.357 105.758ZM526.283 109.338L525.389 108.891L525.37 108.928L525.355 108.967L526.283 109.338ZM500.686 173.42L499.758 173.049L499.754 173.059L499.75 173.069L500.686 173.42ZM498.538 175.926L497.984 175.094L498.538 175.926ZM495.316 177V176H462.022V177V178H495.316V177ZM462.022 177V176C461.183 176 460.298 175.723 459.355 175.094L458.8 175.926L458.246 176.758C459.45 177.561 460.714 178 462.022 178V177ZM458.8 175.926L459.355 175.094C458.409 174.463 457.856 173.78 457.589 173.069L456.652 173.42L455.716 173.771C456.165 174.969 457.044 175.957 458.246 176.758L458.8 175.926ZM456.652 173.42L457.581 173.049L431.984 108.967L431.055 109.338L430.127 109.709L455.724 173.791L456.652 173.42ZM431.055 109.338L431.95 108.891C431.53 108.051 431.196 106.96 430.968 105.594L429.981 105.758L428.995 105.922C429.245 107.42 429.626 108.716 430.161 109.785L431.055 109.338ZM429.981 105.758L430.97 105.606C430.736 104.084 430.623 102.826 430.623 101.82H429.623H428.623C428.623 102.962 428.75 104.329 428.993 105.91L429.981 105.758ZM429.623 101.82H430.623V58.144H429.623H428.623V101.82H429.623ZM429.623 58.144H430.623C430.623 57.3174 430.888 56.6823 431.405 56.1661L430.697 55.459L429.99 54.7519C429.075 55.6677 428.623 56.8226 428.623 58.144H429.623ZM430.697 55.459L431.457 56.1098C431.988 55.4899 432.608 55.206 433.382 55.206V54.206V53.206C432.008 53.206 430.839 53.7574 429.938 54.8082L430.697 55.459ZM433.382 54.206V55.206H450.208V54.206V53.206H433.382V54.206ZM450.208 54.206V55.206C450.982 55.206 451.603 55.4899 452.134 56.1098L452.893 55.459L453.653 54.8082C452.752 53.7574 451.582 53.206 450.208 53.206V54.206ZM452.893 55.459L452.243 56.2183C452.863 56.7496 453.146 57.37 453.146 58.144H454.146H455.146C455.146 56.77 454.595 55.6004 453.544 54.6997L452.893 55.459ZM454.146 58.144H453.146V97.166H454.146H455.146V58.144H454.146ZM454.146 97.166H453.146C453.146 98.3104 453.273 99.6206 453.518 101.089L454.504 100.925L455.491 100.761C455.258 99.3654 455.146 98.1696 455.146 97.166H454.146ZM454.504 100.925L453.518 101.089C453.768 102.587 454.149 103.883 454.684 104.952L455.578 104.505L456.473 104.058C456.053 103.218 455.719 102.127 455.491 100.761L454.504 100.925ZM455.578 104.505L454.65 104.876L473.803 152.848L474.731 152.477L475.66 152.106L456.507 104.134L455.578 104.505ZM474.731 152.477V153.477H482.607V152.477V151.477H474.731V152.477ZM482.607 152.477L483.536 152.848L502.689 104.876L501.76 104.505L500.832 104.134L481.679 152.106L482.607 152.477ZM501.76 104.505L502.655 104.952C503.19 103.883 503.571 102.587 503.821 101.089L502.834 100.925L501.848 100.761C501.62 102.127 501.286 103.218 500.866 104.058L501.76 104.505ZM502.834 100.925L503.821 101.089C504.066 99.6206 504.192 98.3104 504.192 97.166H503.192H502.192C502.192 98.1696 502.081 99.3654 501.848 100.761L502.834 100.925ZM503.192 97.166H504.192V58.144H503.192H502.192V97.166H503.192ZM503.192 58.144H504.192C504.192 57.3174 504.457 56.6823 504.974 56.1661L504.266 55.459L503.559 54.7519C502.643 55.6677 502.192 56.8226 502.192 58.144H503.192ZM504.266 55.459L504.974 56.1661C505.642 55.4977 506.349 55.206 507.13 55.206V54.206V53.206C505.763 53.206 504.562 53.7496 503.559 54.7519L504.266 55.459ZM507.13 54.206V55.206H523.956V54.206V53.206H507.13V54.206ZM523.956 54.206V55.206C524.73 55.206 525.351 55.4899 525.882 56.1098L526.641 55.459L527.401 54.8082C526.5 53.7574 525.33 53.206 523.956 53.206V54.206ZM526.641 55.459L525.934 56.1661C526.451 56.6823 526.715 57.3174 526.715 58.144H527.715H528.715C528.715 56.8226 528.264 55.6677 527.349 54.7519L526.641 55.459ZM527.715 58.144H526.715V101.82H527.715H528.715V58.144H527.715ZM527.715 101.82H526.715C526.715 102.826 526.603 104.084 526.369 105.606L527.357 105.758L528.346 105.91C528.589 104.329 528.715 102.962 528.715 101.82H527.715ZM527.357 105.758L526.371 105.594C526.143 106.96 525.809 108.051 525.389 108.891L526.283 109.338L527.178 109.785C527.713 108.716 528.094 107.42 528.344 105.922L527.357 105.758ZM526.283 109.338L525.355 108.967L499.758 173.049L500.686 173.42L501.615 173.791L527.212 109.709L526.283 109.338ZM500.686 173.42L499.75 173.069C499.483 173.78 498.93 174.463 497.984 175.094L498.538 175.926L499.093 176.758C500.295 175.957 501.174 174.969 501.623 173.771L500.686 173.42ZM498.538 175.926L497.984 175.094C497.04 175.723 496.156 176 495.316 176V177V178C496.625 178 497.888 177.561 499.093 176.758L498.538 175.926ZM626.754 55.28L626.154 56.08L626.176 56.0966L626.199 56.1121L626.754 55.28ZM628.902 57.786L627.966 58.1371L627.97 58.1482L627.974 58.1592L628.902 57.786ZM654.678 121.868L655.615 121.517L655.61 121.506L655.606 121.495L654.678 121.868ZM655.573 125.627L654.585 125.779L654.592 125.825L654.603 125.87L655.573 125.627ZM654.857 175.926L655.564 176.633V176.633L654.857 175.926ZM632.482 175.926L631.723 176.577L631.773 176.635L631.831 176.685L632.482 175.926ZM631.408 152.477H632.408V151.477H631.408V152.477ZM582.362 152.477V151.477H581.362V152.477H582.362ZM581.109 175.926L580.402 175.219V175.219L581.109 175.926ZM558.913 175.926L558.154 176.577L558.204 176.635L558.262 176.685L558.913 175.926ZM558.197 125.627L557.223 125.402L557.216 125.432L557.211 125.463L558.197 125.627ZM559.271 121.868L558.342 121.497L558.339 121.507L558.335 121.517L559.271 121.868ZM584.868 57.786L583.974 57.3388L583.955 57.3762L583.939 57.4151L584.868 57.786ZM587.016 55.28L586.461 54.448L586.438 54.4633L586.416 54.48L587.016 55.28ZM583.257 127.954L582.329 127.583L581.78 128.954H583.257V127.954ZM630.513 127.954V128.954H631.99L631.442 127.583L630.513 127.954ZM610.823 78.729L611.752 78.3576L611.5 77.729H610.823V78.729ZM602.947 78.729V77.729H602.27L602.019 78.3576L602.947 78.729ZM623.711 54.206V55.206C624.545 55.206 625.352 55.4786 626.154 56.08L626.754 55.28L627.354 54.48C626.247 53.6494 625.026 53.206 623.711 53.206V54.206ZM626.754 55.28L626.199 56.1121C627.146 56.7429 627.699 57.4255 627.966 58.1371L628.902 57.786L629.838 57.4349C629.389 56.2371 628.511 55.2491 627.309 54.4479L626.754 55.28ZM628.902 57.786L627.974 58.1592L653.75 122.241L654.678 121.868L655.606 121.495L629.83 57.4128L628.902 57.786ZM654.678 121.868L653.742 122.219C654.066 123.085 654.352 124.264 654.585 125.779L655.573 125.627L656.562 125.475C656.317 123.888 656.006 122.561 655.615 121.517L654.678 121.868ZM655.573 125.627L654.603 125.87C654.948 127.249 655.11 128.418 655.11 129.386H656.11H657.11C657.11 128.206 656.914 126.868 656.543 125.384L655.573 125.627ZM656.11 129.386H655.11V173.062H656.11H657.11V129.386H656.11ZM656.11 173.062H655.11C655.11 173.843 654.818 174.551 654.15 175.219L654.857 175.926L655.564 176.633C656.567 175.631 657.11 174.429 657.11 173.062H656.11ZM654.857 175.926L654.15 175.219C653.634 175.735 652.999 176 652.172 176V177V178C653.494 178 654.648 177.549 655.564 176.633L654.857 175.926ZM652.172 177V176H635.346V177V178H652.172V177ZM635.346 177V176C634.517 176 633.792 175.732 633.133 175.167L632.482 175.926L631.831 176.685C632.843 177.552 634.027 178 635.346 178V177ZM632.482 175.926L633.241 175.275C632.677 174.616 632.408 173.891 632.408 173.062H631.408H630.408C630.408 174.381 630.856 175.565 631.723 176.577L632.482 175.926ZM631.408 173.062H632.408V152.477H631.408H630.408V173.062H631.408ZM631.408 152.477V151.477H582.362V152.477V153.477H631.408V152.477ZM582.362 152.477H581.362V173.062H582.362H583.362V152.477H582.362ZM582.362 173.062H581.362C581.362 173.843 581.07 174.551 580.402 175.219L581.109 175.926L581.816 176.633C582.819 175.631 583.362 174.429 583.362 173.062H582.362ZM581.109 175.926L580.402 175.219C579.886 175.735 579.251 176 578.424 176V177V178C579.746 178 580.9 177.549 581.816 176.633L581.109 175.926ZM578.424 177V176H561.777V177V178H578.424V177ZM561.777 177V176C560.948 176 560.223 175.732 559.564 175.167L558.913 175.926L558.262 176.685C559.274 177.552 560.458 178 561.777 178V177ZM558.913 175.926L559.672 175.275C559.108 174.616 558.839 173.891 558.839 173.062H557.839H556.839C556.839 174.381 557.287 175.565 558.154 176.577L558.913 175.926ZM557.839 173.062H558.839V129.386H557.839H556.839V173.062H557.839ZM557.839 129.386H558.839C558.839 128.382 558.951 127.187 559.184 125.791L558.197 125.627L557.211 125.463C556.966 126.931 556.839 128.242 556.839 129.386H557.839ZM558.197 125.627L559.172 125.852C559.524 124.322 559.871 123.116 560.207 122.219L559.271 121.868L558.335 121.517C557.955 122.529 557.586 123.829 557.223 125.402L558.197 125.627ZM559.271 121.868L560.2 122.239L585.797 58.1569L584.868 57.786L583.939 57.4151L558.342 121.497L559.271 121.868ZM584.868 57.786L585.763 58.2332C586.163 57.4331 586.771 56.714 587.616 56.08L587.016 55.28L586.416 54.48C585.352 55.278 584.528 56.2296 583.974 57.3388L584.868 57.786ZM587.016 55.28L587.571 56.112C588.514 55.4831 589.398 55.206 590.238 55.206V54.206V53.206C588.93 53.206 587.666 53.6449 586.461 54.448L587.016 55.28ZM590.238 54.206V55.206H623.711V54.206V53.206H590.238V54.206ZM583.257 127.954V128.954H630.513V127.954V126.954H583.257V127.954ZM630.513 127.954L631.442 127.583L611.752 78.3576L610.823 78.729L609.895 79.1004L629.585 128.325L630.513 127.954ZM610.823 78.729V77.729H602.947V78.729V79.729H610.823V78.729ZM602.947 78.729L602.019 78.3576L582.329 127.583L583.257 127.954L584.186 128.325L603.876 79.1004L602.947 78.729Z" fill="#D9D9D9" mask="url(#path-1-outside-1_24_12)"/>
<circle cx="111.06" cy="194.252" r="30.6968" fill="#D9D9D9" stroke="#D9D9D9"/>
<circle cx="31.1968" cy="112.724" r="30.6968" fill="#D9D9D9" stroke="#D9D9D9"/>
<circle cx="111.06" cy="31.1968" r="30.6968" fill="#D9D9D9" stroke="#D9D9D9"/>
<path d="M32.0287 81.9435C50.3308 81.9435 80.2797 66.969 80.2797 31.1967L110.645 61.9775C96.918 61.9775 61.9776 78.1999 61.9776 111.06L32.0287 81.9435Z" fill="#D9D9D9" stroke="#D9D9D9"/>
<path d="M32.0287 143.505C50.3308 143.505 80.2797 158.064 80.2797 193.836L110.229 163.471C96.502 163.471 61.9776 147.249 61.9776 114.388L32.0287 143.505Z" fill="#D9D9D9" stroke="#D9D9D9"/>
<circle cx="111.06" cy="112.724" r="30.6968" fill="#D9D9D9" stroke="#D9D9D9"/>
</svg>
