<svg width="718" height="271" viewBox="0 0 718 271" fill="none" xmlns="http://www.w3.org/2000/svg">
<path d="M269.528 111.08C268.454 111.08 267.5 110.722 266.664 110.006C265.948 109.171 265.59 108.216 265.59 107.142V105.889C265.59 103.86 264.874 102.19 263.442 100.877C262.13 99.445 260.459 98.729 258.43 98.729H223.525C221.497 98.729 219.826 99.445 218.513 100.877C217.201 102.19 216.544 103.86 216.544 105.889V165.317C216.544 167.346 217.201 169.076 218.513 170.508C219.826 171.821 221.497 172.477 223.525 172.477H258.43C260.459 172.477 262.13 171.821 263.442 170.508C264.874 169.076 265.59 167.346 265.59 165.317V164.064C265.59 162.99 265.948 162.095 266.664 161.379C267.5 160.544 268.454 160.126 269.528 160.126H286.175C287.249 160.126 288.144 160.544 288.86 161.379C289.696 162.095 290.113 162.99 290.113 164.064V165.317C290.113 169.732 289.278 173.849 287.607 177.668C285.937 181.487 283.669 184.828 280.805 187.692C277.941 190.556 274.6 192.823 270.781 194.494C266.963 196.165 262.846 197 258.43 197H223.525C219.229 197 215.112 196.165 211.174 194.494C207.356 192.823 204.014 190.556 201.15 187.692C198.286 184.828 196.019 181.487 194.348 177.668C192.678 173.849 191.842 169.732 191.842 165.317V105.889C191.842 101.474 192.678 97.3567 194.348 93.538C196.019 89.7193 198.286 86.378 201.15 83.514C204.014 80.65 207.356 78.3827 211.174 76.712C215.112 75.0413 219.229 74.206 223.525 74.206H258.43C262.846 74.206 266.963 75.0413 270.781 76.712C274.6 78.3827 277.941 80.65 280.805 83.514C283.669 86.378 285.937 89.7193 287.607 93.538C289.278 97.3567 290.113 101.474 290.113 105.889V107.142C290.113 108.216 289.696 109.171 288.86 110.006C288.144 110.722 287.249 111.08 286.175 111.08H269.528ZM386.821 74.385C391.236 74.385 395.353 75.2203 399.172 76.891C402.991 78.5617 406.332 80.829 409.196 83.693C412.06 86.557 414.327 89.8983 415.998 93.717C417.669 97.5357 418.504 101.593 418.504 105.889V165.496C418.504 169.792 417.669 173.849 415.998 177.668C414.327 181.487 412.06 184.828 409.196 187.692C406.332 190.556 402.991 192.823 399.172 194.494C395.353 196.165 391.236 197 386.821 197H351.916C347.501 197 343.384 196.165 339.565 194.494C335.746 192.823 332.405 190.556 329.541 187.692C326.677 184.828 324.41 181.487 322.739 177.668C321.068 173.849 320.233 169.792 320.233 165.496V105.889C320.233 101.593 321.068 97.5357 322.739 93.717C324.41 89.8983 326.677 86.557 329.541 83.693C332.405 80.829 335.746 78.5617 339.565 76.891C343.384 75.2203 347.501 74.385 351.916 74.385H386.821ZM393.981 105.889C393.981 103.86 393.265 102.19 391.833 100.877C390.52 99.5643 388.85 98.908 386.821 98.908H351.916C349.887 98.908 348.157 99.5643 346.725 100.877C345.412 102.19 344.756 103.86 344.756 105.889V165.496C344.756 167.525 345.412 169.195 346.725 170.508C348.157 171.821 349.887 172.477 351.916 172.477H386.821C388.85 172.477 390.52 171.821 391.833 170.508C393.265 169.195 393.981 167.525 393.981 165.496V105.889ZM514.316 197H481.022C479.948 197 478.874 196.642 477.8 195.926C476.726 195.21 476.01 194.375 475.652 193.42L450.055 129.338C449.578 128.383 449.22 127.19 448.981 125.758C448.743 124.207 448.623 122.894 448.623 121.82V78.144C448.623 77.07 448.981 76.175 449.697 75.459C450.413 74.6237 451.308 74.206 452.382 74.206H469.208C470.282 74.206 471.177 74.6237 471.893 75.459C472.729 76.175 473.146 77.07 473.146 78.144V117.166C473.146 118.24 473.266 119.493 473.504 120.925C473.743 122.357 474.101 123.55 474.578 124.505L493.731 172.477H501.607L520.76 124.505C521.238 123.55 521.596 122.357 521.834 120.925C522.073 119.493 522.192 118.24 522.192 117.166V78.144C522.192 77.07 522.55 76.175 523.266 75.459C524.102 74.6237 525.056 74.206 526.13 74.206H542.956C544.03 74.206 544.925 74.6237 545.641 75.459C546.357 76.175 546.715 77.07 546.715 78.144V121.82C546.715 122.894 546.596 124.207 546.357 125.758C546.119 127.19 545.761 128.383 545.283 129.338L519.686 193.42C519.328 194.375 518.612 195.21 517.538 195.926C516.464 196.642 515.39 197 514.316 197ZM642.711 74.206C643.785 74.206 644.799 74.564 645.754 75.28C646.828 75.996 647.544 76.8313 647.902 77.786L673.678 141.868C674.036 142.823 674.334 144.076 674.573 145.627C674.931 147.059 675.11 148.312 675.11 149.386V193.062C675.11 194.136 674.692 195.091 673.857 195.926C673.141 196.642 672.246 197 671.172 197H654.346C653.272 197 652.317 196.642 651.482 195.926C650.766 195.091 650.408 194.136 650.408 193.062V172.477H601.362V193.062C601.362 194.136 600.944 195.091 600.109 195.926C599.393 196.642 598.498 197 597.424 197H580.777C579.703 197 578.748 196.642 577.913 195.926C577.197 195.091 576.839 194.136 576.839 193.062V149.386C576.839 148.312 576.958 147.059 577.197 145.627C577.555 144.076 577.913 142.823 578.271 141.868L603.868 77.786C604.345 76.8313 605.061 75.996 606.016 75.28C607.09 74.564 608.164 74.206 609.238 74.206H642.711ZM602.257 147.954H649.513L629.823 98.729H621.947L602.257 147.954Z" fill="#1C1C1C"/>
<circle cx="133.5" cy="233.5" r="37" fill="#1C1C1C" stroke="#1C1C1C"/>
<circle cx="37.5" cy="135.5" r="37" fill="#1C1C1C" stroke="#1C1C1C"/>
<circle cx="133.5" cy="37.5" r="37" fill="#1C1C1C" stroke="#1C1C1C"/>
<path d="M38.5 98.5C60.4999 98.5 96.5 80.5 96.5 37.5L133 74.5C116.5 74.5 74.5 94 74.5 133.5L38.5 98.5Z" fill="#1C1C1C" stroke="#1C1C1C"/>
<path d="M38.5 172.5C60.5 172.5 96.5 190 96.5 233L132.5 196.5C116 196.5 74.5 177 74.5 137.5L38.5 172.5Z" fill="#1C1C1C" stroke="#1C1C1C"/>
<circle cx="133.5" cy="135.5" r="37" fill="#1C1C1C" stroke="#1C1C1C"/>
</svg>
