<svg width="699" height="226" viewBox="0 0 699 226" fill="none" xmlns="http://www.w3.org/2000/svg">
<path d="M269.681 173.599C270.278 174.554 270.338 175.389 269.86 176.105C269.502 176.702 268.786 177 267.712 177H247.306C246.232 177 245.158 176.702 244.084 176.105C243.01 175.389 242.175 174.554 241.578 173.599L215.623 127.954H198.26V173.062C198.26 174.136 197.843 175.091 197.007 175.926C196.291 176.642 195.396 177 194.322 177H177.496C176.422 177 175.527 176.642 174.811 175.926C174.095 175.091 173.737 174.136 173.737 173.062V58.144C173.737 57.07 174.095 56.175 174.811 55.459C175.527 54.6237 176.422 54.206 177.496 54.206H194.322C195.396 54.206 196.291 54.6237 197.007 55.459C197.843 56.175 198.26 57.07 198.26 58.144V103.431H215.623L241.578 57.607C242.175 56.6523 243.01 55.8767 244.084 55.28C245.158 54.564 246.232 54.206 247.306 54.206H267.712C268.786 54.206 269.502 54.564 269.86 55.28C270.338 55.8767 270.278 56.6523 269.681 57.607L236.924 115.603L269.681 173.599ZM367.821 54.385C372.236 54.385 376.353 55.2203 380.172 56.891C383.991 58.5617 387.332 60.829 390.196 63.693C393.06 66.557 395.327 69.8983 396.998 73.717C398.669 77.5357 399.504 81.593 399.504 85.889V145.496C399.504 149.792 398.669 153.849 396.998 157.668C395.327 161.487 393.06 164.828 390.196 167.692C387.332 170.556 383.991 172.823 380.172 174.494C376.353 176.165 372.236 177 367.821 177H332.916C328.501 177 324.384 176.165 320.565 174.494C316.746 172.823 313.405 170.556 310.541 167.692C307.677 164.828 305.41 161.487 303.739 157.668C302.068 153.849 301.233 149.792 301.233 145.496V85.889C301.233 81.593 302.068 77.5357 303.739 73.717C305.41 69.8983 307.677 66.557 310.541 63.693C313.405 60.829 316.746 58.5617 320.565 56.891C324.384 55.2203 328.501 54.385 332.916 54.385H367.821ZM374.981 85.889C374.981 83.8603 374.265 82.1897 372.833 80.877C371.52 79.5643 369.85 78.908 367.821 78.908H332.916C330.887 78.908 329.157 79.5643 327.725 80.877C326.412 82.1897 325.756 83.8603 325.756 85.889V145.496C325.756 147.525 326.412 149.195 327.725 150.508C329.157 151.821 330.887 152.477 332.916 152.477H367.821C369.85 152.477 371.52 151.821 372.833 150.508C374.265 149.195 374.981 147.525 374.981 145.496V85.889ZM495.316 177H462.022C460.948 177 459.874 176.642 458.8 175.926C457.726 175.21 457.01 174.375 456.652 173.42L431.055 109.338C430.578 108.383 430.22 107.19 429.981 105.758C429.743 104.207 429.623 102.894 429.623 101.82V58.144C429.623 57.07 429.981 56.175 430.697 55.459C431.413 54.6237 432.308 54.206 433.382 54.206H450.208C451.282 54.206 452.177 54.6237 452.893 55.459C453.729 56.175 454.146 57.07 454.146 58.144V97.166C454.146 98.24 454.266 99.493 454.504 100.925C454.743 102.357 455.101 103.55 455.578 104.505L474.731 152.477H482.607L501.76 104.505C502.238 103.55 502.596 102.357 502.834 100.925C503.073 99.493 503.192 98.24 503.192 97.166V58.144C503.192 57.07 503.55 56.175 504.266 55.459C505.102 54.6237 506.056 54.206 507.13 54.206H523.956C525.03 54.206 525.925 54.6237 526.641 55.459C527.357 56.175 527.715 57.07 527.715 58.144V101.82C527.715 102.894 527.596 104.207 527.357 105.758C527.119 107.19 526.761 108.383 526.283 109.338L500.686 173.42C500.328 174.375 499.612 175.21 498.538 175.926C497.464 176.642 496.39 177 495.316 177ZM623.711 54.206C624.785 54.206 625.799 54.564 626.754 55.28C627.828 55.996 628.544 56.8313 628.902 57.786L654.678 121.868C655.036 122.823 655.334 124.076 655.573 125.627C655.931 127.059 656.11 128.312 656.11 129.386V173.062C656.11 174.136 655.692 175.091 654.857 175.926C654.141 176.642 653.246 177 652.172 177H635.346C634.272 177 633.317 176.642 632.482 175.926C631.766 175.091 631.408 174.136 631.408 173.062V152.477H582.362V173.062C582.362 174.136 581.944 175.091 581.109 175.926C580.393 176.642 579.498 177 578.424 177H561.777C560.703 177 559.748 176.642 558.913 175.926C558.197 175.091 557.839 174.136 557.839 173.062V129.386C557.839 128.312 557.958 127.059 558.197 125.627C558.555 124.076 558.913 122.823 559.271 121.868L584.868 57.786C585.345 56.8313 586.061 55.996 587.016 55.28C588.09 54.564 589.164 54.206 590.238 54.206H623.711ZM583.257 127.954H630.513L610.823 78.729H602.947L583.257 127.954Z" fill="#1C1C1C"/>
<circle cx="111.06" cy="194.252" r="30.6968" fill="#1C1C1C" stroke="#1C1C1C"/>
<circle cx="31.1968" cy="112.724" r="30.6968" fill="#1C1C1C" stroke="#1C1C1C"/>
<circle cx="111.06" cy="31.1968" r="30.6968" fill="#1C1C1C" stroke="#1C1C1C"/>
<path d="M32.0287 81.9435C50.3308 81.9435 80.2797 66.969 80.2797 31.1967L110.645 61.9775C96.918 61.9775 61.9776 78.1999 61.9776 111.06L32.0287 81.9435Z" fill="#1C1C1C" stroke="#1C1C1C"/>
<path d="M32.0287 143.505C50.3308 143.505 80.2797 158.064 80.2797 193.836L110.229 163.471C96.502 163.471 61.9776 147.249 61.9776 114.388L32.0287 143.505Z" fill="#1C1C1C" stroke="#1C1C1C"/>
<circle cx="111.06" cy="112.724" r="30.6968" fill="#1C1C1C" stroke="#1C1C1C"/>
</svg>
