<svg width="800" height="350" viewBox="0 0 800 350" fill="none" xmlns="http://www.w3.org/2000/svg">
<rect width="800" height="350" rx="30" fill="#D9D9D9"/>
<path d="M333.528 151.08C332.454 151.08 331.5 150.722 330.664 150.006C329.948 149.171 329.59 148.216 329.59 147.142V145.889C329.59 143.86 328.874 142.19 327.442 140.877C326.13 139.445 324.459 138.729 322.43 138.729H287.525C285.497 138.729 283.826 139.445 282.513 140.877C281.201 142.19 280.544 143.86 280.544 145.889V205.317C280.544 207.346 281.201 209.076 282.513 210.508C283.826 211.821 285.497 212.477 287.525 212.477H322.43C324.459 212.477 326.13 211.821 327.442 210.508C328.874 209.076 329.59 207.346 329.59 205.317V204.064C329.59 202.99 329.948 202.095 330.664 201.379C331.5 200.544 332.454 200.126 333.528 200.126H350.175C351.249 200.126 352.144 200.544 352.86 201.379C353.696 202.095 354.113 202.99 354.113 204.064V205.317C354.113 209.732 353.278 213.849 351.607 217.668C349.937 221.487 347.669 224.828 344.805 227.692C341.941 230.556 338.6 232.823 334.781 234.494C330.963 236.165 326.846 237 322.43 237H287.525C283.229 237 279.112 236.165 275.174 234.494C271.356 232.823 268.014 230.556 265.15 227.692C262.286 224.828 260.019 221.487 258.348 217.668C256.678 213.849 255.842 209.732 255.842 205.317V145.889C255.842 141.474 256.678 137.357 258.348 133.538C260.019 129.719 262.286 126.378 265.15 123.514C268.014 120.65 271.356 118.383 275.174 116.712C279.112 115.041 283.229 114.206 287.525 114.206H322.43C326.846 114.206 330.963 115.041 334.781 116.712C338.6 118.383 341.941 120.65 344.805 123.514C347.669 126.378 349.937 129.719 351.607 133.538C353.278 137.357 354.113 141.474 354.113 145.889V147.142C354.113 148.216 353.696 149.171 352.86 150.006C352.144 150.722 351.249 151.08 350.175 151.08H333.528ZM450.821 114.385C455.236 114.385 459.353 115.22 463.172 116.891C466.991 118.562 470.332 120.829 473.196 123.693C476.06 126.557 478.327 129.898 479.998 133.717C481.669 137.536 482.504 141.593 482.504 145.889V205.496C482.504 209.792 481.669 213.849 479.998 217.668C478.327 221.487 476.06 224.828 473.196 227.692C470.332 230.556 466.991 232.823 463.172 234.494C459.353 236.165 455.236 237 450.821 237H415.916C411.501 237 407.384 236.165 403.565 234.494C399.746 232.823 396.405 230.556 393.541 227.692C390.677 224.828 388.41 221.487 386.739 217.668C385.068 213.849 384.233 209.792 384.233 205.496V145.889C384.233 141.593 385.068 137.536 386.739 133.717C388.41 129.898 390.677 126.557 393.541 123.693C396.405 120.829 399.746 118.562 403.565 116.891C407.384 115.22 411.501 114.385 415.916 114.385H450.821ZM457.981 145.889C457.981 143.86 457.265 142.19 455.833 140.877C454.52 139.564 452.85 138.908 450.821 138.908H415.916C413.887 138.908 412.157 139.564 410.725 140.877C409.412 142.19 408.756 143.86 408.756 145.889V205.496C408.756 207.525 409.412 209.195 410.725 210.508C412.157 211.821 413.887 212.477 415.916 212.477H450.821C452.85 212.477 454.52 211.821 455.833 210.508C457.265 209.195 457.981 207.525 457.981 205.496V145.889ZM578.316 237H545.022C543.948 237 542.874 236.642 541.8 235.926C540.726 235.21 540.01 234.375 539.652 233.42L514.055 169.338C513.578 168.383 513.22 167.19 512.981 165.758C512.743 164.207 512.623 162.894 512.623 161.82V118.144C512.623 117.07 512.981 116.175 513.697 115.459C514.413 114.624 515.308 114.206 516.382 114.206H533.208C534.282 114.206 535.177 114.624 535.893 115.459C536.729 116.175 537.146 117.07 537.146 118.144V157.166C537.146 158.24 537.266 159.493 537.504 160.925C537.743 162.357 538.101 163.55 538.578 164.505L557.731 212.477H565.607L584.76 164.505C585.238 163.55 585.596 162.357 585.834 160.925C586.073 159.493 586.192 158.24 586.192 157.166V118.144C586.192 117.07 586.55 116.175 587.266 115.459C588.102 114.624 589.056 114.206 590.13 114.206H606.956C608.03 114.206 608.925 114.624 609.641 115.459C610.357 116.175 610.715 117.07 610.715 118.144V161.82C610.715 162.894 610.596 164.207 610.357 165.758C610.119 167.19 609.761 168.383 609.283 169.338L583.686 233.42C583.328 234.375 582.612 235.21 581.538 235.926C580.464 236.642 579.39 237 578.316 237ZM706.711 114.206C707.785 114.206 708.799 114.564 709.754 115.28C710.828 115.996 711.544 116.831 711.902 117.786L737.678 181.868C738.036 182.823 738.334 184.076 738.573 185.627C738.931 187.059 739.11 188.312 739.11 189.386V233.062C739.11 234.136 738.692 235.091 737.857 235.926C737.141 236.642 736.246 237 735.172 237H718.346C717.272 237 716.317 236.642 715.482 235.926C714.766 235.091 714.408 234.136 714.408 233.062V212.477H665.362V233.062C665.362 234.136 664.944 235.091 664.109 235.926C663.393 236.642 662.498 237 661.424 237H644.777C643.703 237 642.748 236.642 641.913 235.926C641.197 235.091 640.839 234.136 640.839 233.062V189.386C640.839 188.312 640.958 187.059 641.197 185.627C641.555 184.076 641.913 182.823 642.271 181.868L667.868 117.786C668.345 116.831 669.061 115.996 670.016 115.28C671.09 114.564 672.164 114.206 673.238 114.206H706.711ZM666.257 187.954H713.513L693.823 138.729H685.947L666.257 187.954Z" fill="#1C1C1C"/>
<circle cx="197.5" cy="273.5" r="37" fill="#1C1C1C" stroke="#1C1C1C"/>
<circle cx="101.5" cy="175.5" r="37" fill="#1C1C1C" stroke="#1C1C1C"/>
<circle cx="197.5" cy="77.5" r="37" fill="#1C1C1C" stroke="#1C1C1C"/>
<path d="M102.5 138.5C124.5 138.5 160.5 120.5 160.5 77.5L197 114.5C180.5 114.5 138.5 134 138.5 173.5L102.5 138.5Z" fill="#1C1C1C" stroke="#1C1C1C"/>
<path d="M102.5 212.5C124.5 212.5 160.5 230 160.5 273L196.5 236.5C180 236.5 138.5 217 138.5 177.5L102.5 212.5Z" fill="#1C1C1C" stroke="#1C1C1C"/>
<circle cx="197.5" cy="175.5" r="37" fill="#1C1C1C" stroke="#1C1C1C"/>
</svg>
